<?xml version="1.0" encoding="utf-8"?>
<!-- Generator: Adobe Illustrator 14.0.0, SVG Export Plug-In . SVG Version: 6.00 Build 43363)  -->
<!DOCTYPE svg PUBLIC "-//W3C//DTD SVG 1.1//EN" "http://www.w3.org/Graphics/SVG/1.1/DTD/svg11.dtd">
<svg version="1.1" id="Layer_1" xmlns="http://www.w3.org/2000/svg" xmlns:xlink="http://www.w3.org/1999/xlink" x="0px" y="0px"
	 width="2272px" height="1872px" viewBox="0 0 2272 1872" enable-background="new 0 0 2272 1872" xml:space="preserve">
<g>
	<path fill-rule="evenodd" clip-rule="evenodd" fill="#ED9D6C" d="M1044.535,1010.382c0,0-4.004-4.313-5.236-1.846
		c-1.233,2.463,1.539,14.173,3.388,17.561c1.848,3.389,5.856,2.774,5.856,2.774l5.229,12.038l15.582,13.443l8.248,0.305
		l17.873-15.427l2.29-12.373c0,0,3.055-0.611,5.499-3.36c2.443-2.749,2.903-7.332,3.206-12.678c0.307-5.346,2.445-9.165,0-9.624
		c-2.443-0.46-5.803,2.444-6.262,4.89c-0.458,2.441-1.069,4.275-1.069,4.275l-1.985-2.901c0,0-0.458-6.875-1.375-9.776
		c-0.915-2.904-3.666-0.763-3.666-5.805s2.596-5.653-0.457-10.236c-3.056-4.579-7.485-6.564-12.985-3.968
		s-15.733,3.664-20.926,2.442c-5.194-1.221-6.11-2.75-7.791-0.916c-1.68,1.83-5.804,3.053-4.583,7.636
		c1.222,4.583,0.153,3.819-0.152,8.25S1044.535,1010.382,1044.535,1010.382z"/>
	<path fill-rule="evenodd" clip-rule="evenodd" fill="#804432" d="M1057.746,980.116c5.192,1.222,15.426,0.154,20.926-2.442
		s9.929-0.611,12.985,3.968c3.053,4.583,0.457,5.194,0.457,10.236s2.751,2.9,3.666,5.805c0.917,2.901,1.375,9.776,1.375,9.776
		l1.985,2.901c0,0,0.611-1.834,1.069-4.275c0.316-1.685,2.006-3.584,3.825-4.452c0.005-11.601-4.494-28.846-8.407-34.347
		c-4.888-6.875-9.929-6.875-18.635-8.706c-8.706-1.834-28.105,7.024-32.077,12.065c-3.971,5.039-7.637,13.137-6.72,17.872
		c0.605,3.128,2.146,13.063,3.12,19.441c1.525,0.596,3.221,2.423,3.221,2.423s0.38-10.865,0.686-15.296s1.375-3.667,0.152-8.25
		c-1.221-4.583,2.902-5.806,4.583-7.636C1051.635,977.366,1052.552,978.896,1057.746,980.116z"/>
	<path fill-rule="evenodd" clip-rule="evenodd" fill="#E03C2D" d="M1053.854,1053.285c0,0-36.911,14.937-43.07,17.472
		c-6.16,2.538-42.433,63.685-42.433,63.685l29.345,16.302l10.507-11.231c0,0,5.797,57.97,5.797,72.459
		c0,14.492-4.71,42.392-4.71,42.392s84.054,15.581,110.138,11.958c26.084-3.624,26.084-3.624,26.084-3.624l0.299-117.938
		l8.644,2.604l30.251-7.723l-28.814-73.918l-48.78-18.954l-32.607,46.376L1053.854,1053.285z"/>
	<polygon fill-rule="evenodd" clip-rule="evenodd" fill="#555684" points="1009.29,1254.362 1042.994,1528.541 1077.775,1527.092 
		1090.456,1308.262 1111.107,1393.768 1095.166,1459.705 1113.28,1466.224 1155.307,1395.214 1145.516,1262.696 	"/>
	<path fill-rule="evenodd" clip-rule="evenodd" fill="#ED9D6C" d="M1184.705,1139.639l17.219,54.737c0,0-6.521,9.779-12.68,8.693
		s-73.906-46.376-73.906-46.376s-23.913-5.069-27.537-6.521c-3.623-1.449-12.319,0-15.579-1.809
		c-3.261-1.813-3.622-4.713-3.622-4.713s-7.247-4.707-7.247-6.882s-2.899-5.799-2.536-8.696c0.361-2.898,0.724-3.984,0.724-3.984
		l0.363-6.885c0,0,12.317,0.363,17.39,0.363c5.071,0,9.781-1.813,13.768,0.726c3.983,2.535,17.39,15.216,17.39,15.216l46.001,13.854
		L1184.705,1139.639z"/>
	<path fill-rule="evenodd" clip-rule="evenodd" fill="#CE865B" d="M1159.536,1149.992c0,0,5.979-0.18,12.317,2.538
		c6.342,2.715,12.5,5.433,12.5,5.433S1178.379,1147.094,1159.536,1149.992z"/>
	<path fill-rule="evenodd" clip-rule="evenodd" fill="#373435" d="M1054.776,1467.478c0,0-13.767,8.334-18.115,20.291
		c-4.347,11.955,2.173,38.765,5.434,43.115c3.261,4.347,3.624,5.069,3.624,5.069s0.725,7.248,0.725,13.406
		c0,6.159,3.985,13.767,16.304,13.041c12.318-0.724,19.563-6.519,19.925-14.489c0.362-7.971-5.795-18.479-5.795-24.275
		s6.52-15.941-1.088-32.246C1068.182,1475.088,1063.472,1464.217,1054.776,1467.478z"/>
	<path fill-rule="evenodd" clip-rule="evenodd" fill="#373435" d="M1113.28,1466.044c0,0,3.089,16.829,3.089,26.975
		s-2.355,35.87-7.607,35.87c-5.254,0-15.579-12.501-17.391-33.332c-1.813-20.834-0.725-19.565-1.994-24.275
		s-2.173-10.146-1.086-12.317c1.086-2.175,9.984-2.52,8.695-2.718C1095.695,1456.047,1113.28,1466.044,1113.28,1466.044z"/>
	<polygon fill-rule="evenodd" clip-rule="evenodd" fill="#ED9D6C" points="1095.394,1047.986 1095.476,1039.23 1077.603,1054.657 
		1069.354,1054.353 1056.621,1043.366 1057.803,1052.007 1054.508,1054.552 1074.503,1093.143 1097.45,1060.505 1103.781,1051.501 	
		"/>
	<polygon fill-rule="evenodd" clip-rule="evenodd" fill="#C33327" points="1145.811,1144.758 1139.056,1086.794 1151.168,1141.6 
		1154.454,1147.361 	"/>
	<path fill-rule="evenodd" clip-rule="evenodd" fill="#ED9D6C" d="M970.252,1135.496l-7.333,25.3c-2.6,8.973,22.198,91.06,28.284,95
		c3.079,1.988,21.581,5.147,24.298,4.784s2.175-6.521,2.175-6.521s1.992-3.441,1.992-5.073c0-1.629,0-1.992,0-1.992
		s2.355-0.362,2.718-3.44c0.361-3.081,0-5.253,0-5.253s6.703-1.812,8.151-5.076c1.449-3.255-11.935-13.201-11.956-13.224
		c-1.086-1.086-10.326,0.727-10.326,0.727l-11.616-7.232l-7.998-48.352l9.054-14.399L970.252,1135.496z"/>
	<polygon fill-rule="evenodd" clip-rule="evenodd" fill="#CE865B" points="1069.354,1054.353 1056.621,1043.366 1057.329,1048.538 
		1068.759,1058.076 1079.283,1057.48 1095.452,1041.642 1095.476,1039.23 1077.603,1054.657 	"/>
	<polygon fill-rule="evenodd" clip-rule="evenodd" fill="#3E3D63" points="1092.42,1259.447 1093.98,1305.786 1090.456,1308.262 
		1085.831,1259.044 	"/>
	<path fill-rule="evenodd" clip-rule="evenodd" fill="#804432" d="M1057.197,1014.673c1.858,0,3.374-2.588,3.374-5.762
		c0-3.171-1.516-5.755-3.374-5.755c-1.86,0-3.377,2.584-3.377,5.755C1053.819,1012.085,1055.336,1014.673,1057.197,1014.673z"/>
	<path fill-rule="evenodd" clip-rule="evenodd" fill="#804432" d="M1080.826,1012.29c1.86,0,3.376-2.588,3.376-5.759
		c0-3.174-1.516-5.758-3.376-5.758c-1.86,0-3.375,2.584-3.375,5.758C1077.451,1009.702,1078.966,1012.29,1080.826,1012.29z"/>
	<path fill-rule="evenodd" clip-rule="evenodd" fill="#804432" d="M1062.664,1033.227c-0.346-0.267-0.408-0.767-0.14-1.113
		c0.268-0.345,0.768-0.407,1.114-0.14c0.023,0.019,7.868,6.369,16.705-0.4c0.348-0.264,0.846-0.199,1.111,0.148
		c0.264,0.348,0.199,0.848-0.149,1.111C1071.477,1040.359,1062.688,1033.245,1062.664,1033.227z"/>
	<path fill-rule="evenodd" clip-rule="evenodd" fill="#804432" d="M1075.836,997.772c-0.165,0.128-0.196,0.366-0.067,0.531
		c0.129,0.167,0.368,0.195,0.534,0.067c0.011-0.009,3.764-3.046,7.989,0.189c0.166,0.128,0.405,0.097,0.531-0.068
		c0.127-0.167,0.096-0.406-0.07-0.533C1080.051,994.36,1075.848,997.761,1075.836,997.772z"/>
	<path fill-rule="evenodd" clip-rule="evenodd" fill="#804432" d="M1051.829,999.066c-0.166,0.127-0.196,0.366-0.067,0.53
		c0.129,0.168,0.366,0.196,0.532,0.068c0.011-0.009,3.764-3.047,7.991,0.192c0.166,0.124,0.403,0.094,0.531-0.071
		c0.127-0.167,0.095-0.406-0.071-0.533C1056.044,995.653,1051.841,999.058,1051.829,999.066z"/>
	<path fill-rule="evenodd" clip-rule="evenodd" fill="#B97A52" d="M1070.949,1026.584c2.051,0,3.723-0.602,3.723-1.34
		c0-0.739-1.672-1.341-3.723-1.341c-2.049,0-3.722,0.602-3.722,1.341C1067.228,1025.982,1068.9,1026.584,1070.949,1026.584z"/>
</g>
<g>
	<polygon fill-rule="evenodd" clip-rule="evenodd" fill="#E03C2D" points="543.988,358.519 491.094,374.075 447.016,426.451 
		472.425,450.305 487.464,439.934 476.573,556.611 602.584,560.759 619.179,458.601 636.81,451.342 642.514,395.338 
		591.696,369.409 564.729,397.412 	"/>
	<path fill-rule="evenodd" clip-rule="evenodd" fill="#ED9D6C" d="M449.81,429.073l-30.537,48.716l3.371,4.15l85.305,6.481
		c0,0,16.852,4.407,21.259,3.889c4.409-0.518,7.26-2.852,9.595-2.852c2.333,0,13.483,2.592,14.778,0.777
		c1.297-1.815-1.815-2.076,1.815-4.407c3.63-2.335,6.483-3.63,7.26-5.445c0.777-1.815,0.777-3.632,1.038-4.927
		c0.259-1.295,1.813-2.074,2.074-5.186c0.259-3.11-3.112-6.221-3.112-6.221s-22.299-5.188-25.15-4.15
		c-2.851,1.038-13.742,8.557-13.742,8.557l-4.927,1.295l-53.412-12.186l7-7.262L449.81,429.073z"/>
	<path fill-rule="evenodd" clip-rule="evenodd" fill="#D2895C" d="M465.426,457.566c0,0-15.557-5.574-19.964-5.445
		c-4.409,0.13-4.409,0.13-4.409,0.13l7.13-1.816l19.219,5.082L465.426,457.566z"/>
	<polygon fill-rule="evenodd" clip-rule="evenodd" fill="#C33528" points="619.179,458.601 628.256,413.746 623.2,454.324 
		625.636,455.944 	"/>
	<path fill-rule="evenodd" clip-rule="evenodd" fill="#ED9D6C" d="M633.693,452.625l0.006,7.015l37.857,32.41l23.333,2.333
		l3.63,4.668c0,0-1.556,7.001-1.813,8.815c-0.261,1.815-2.076,7.778-3.371,9.334c-1.297,1.556-4.409,5.704-4.409,5.704
		s-8.037-2.333-10.111-2.852c-2.074-0.52-3.889-4.668-3.889-4.668s-4.927-2.074-6.223-3.889c-1.297-1.815-2.594-7.26-2.594-7.26
		l-52.052-14.117l5.121-31.519L633.693,452.625z"/>
	<path fill-rule="evenodd" clip-rule="evenodd" fill="#555684" d="M602.584,560.759l22.817,139.756v157.643l-21.261,6.223
		l-24.917-130.645l-1.556-15.557l-28.42-118.619l-3.972,6.354l-13.475,131.938l-20.225,9.334l-44.078-47.189
		c-2.604-10.146-0.678-17.338,4.668-22.299l12.964,6.224l-4.663-127.181L602.584,560.759z"/>
	<path fill-rule="evenodd" clip-rule="evenodd" fill="#414266" d="M488.759,702.845c-1.815-5.444-3.629-18.925-3.629-18.925
		l-2.26-1.086c0.304,2.383,0.622,4.941,0.833,6.787c0.519,4.538,6.871,18.669,6.871,18.669L488.759,702.845z"/>
	<path fill-rule="evenodd" clip-rule="evenodd" fill="#373435" d="M472.166,677.697l-2.853-4.15l-10.891-4.409
		c0,0-7.001,12.706-7.778,14.521c-0.779,1.815-1.036,7-1.815,9.594s-5.963,22.817-6.224,32.151
		c-0.257,9.334,8.039,16.075,8.039,16.075s4.407-1.556,6.481-2.074s5.186-5.963,5.186-5.963l6.945-31.563l-1.759-1.881
		C464.894,689.85,466.82,682.658,472.166,677.697z"/>
	<path fill-rule="evenodd" clip-rule="evenodd" fill="#373435" d="M605.403,864.011l-3.338,9.441l-0.259,23.853
		c0,0,14.519-4.409,18.667-5.186c4.148-0.777,4.148,0,13.482-1.815c9.334-1.815,21.521-6.483,25.15-9.594
		c3.63-3.11,0.777-7.519-7-8.816c-7.778-1.295-18.41-5.185-20.483-7c-2.074-1.815-6.221-6.738-6.221-6.738L605.403,864.011z"/>
	<path fill-rule="evenodd" clip-rule="evenodd" fill="#ED9D6C" d="M606.479,323.257c0,0,4.062-4.261,5.261-1.781
		c1.201,2.48-1.725,14.153-3.62,17.518c-1.891,3.363-5.89,2.695-5.89,2.695l-5.388,11.972l-15.755,13.237l-8.251,0.197
		l-17.668-15.661l-2.13-12.401c0,0-3.045-0.65-5.454-3.432c-2.406-2.782-2.807-7.369-3.042-12.719
		c-0.234-5.349-2.324-9.196,0.127-9.623c2.45-0.425,5.771,2.521,6.197,4.971c0.427,2.449,1.013,4.289,1.013,4.289l2.023-2.875
		c0,0,0.549-6.866,1.503-9.758c0.954-2.89,3.675-0.715,3.742-5.755c0.065-5.041-2.522-5.688,0.593-10.228
		c3.113-4.542,7.569-6.469,13.033-3.801c5.465,2.668,15.685,3.871,20.893,2.716c5.209-1.152,6.146-2.668,7.802-0.813
		c1.655,1.854,5.763,3.129,4.481,7.696c-1.28,4.565-0.202,3.816,0.047,8.25C606.241,312.384,606.479,323.257,606.479,323.257z"/>
	<path fill-rule="evenodd" clip-rule="evenodd" fill="#804432" d="M593.665,292.818c-5.208,1.154-15.428-0.048-20.893-2.716
		c-5.464-2.668-9.919-0.742-13.033,3.801c-3.115,4.541-0.528,5.188-0.593,10.228c-0.067,5.04-2.788,2.865-3.742,5.755
		c-0.954,2.892-1.503,9.758-1.503,9.758l-2.023,2.875c0,0-0.586-1.84-1.013-4.289c-0.293-1.687-1.958-3.607-3.767-4.502
		c0.147-11.6,4.872-28.784,8.857-34.233c4.978-6.811,10.017-6.744,18.746-8.462c8.731-1.719,28.012,7.394,31.918,12.485
		c3.905,5.092,7.463,13.236,6.486,17.958c-0.647,3.121-2.318,13.036-3.375,19.401c-1.533,0.575-3.253,2.381-3.253,2.381
		s-0.237-10.873-0.484-15.305c-0.249-4.434-1.327-3.685-0.047-8.25c1.282-4.567-2.826-5.842-4.481-7.696
		C599.811,290.15,598.874,291.666,593.665,292.818z"/>
	<path fill-rule="evenodd" clip-rule="evenodd" fill="#ED9D6C" d="M581.085,366.897l-7.726,0.185l-16.545-14.665l-1.994-11.612
		c0,0-0.13-0.028-0.358-0.098l-2.815,19.227l-6.938-0.063l20.02,37.541l26.174-26.256l-1.511-1.553l3.47-12.6L581.085,366.897z"/>
	<polygon fill-rule="evenodd" clip-rule="evenodd" fill="#D2895C" points="556.814,352.417 554.821,340.806 554.462,340.708 
		553.939,344.282 553.349,348.31 553.765,354.173 571.864,371.689 581.664,369.86 591.839,360.722 592.862,357.003 581.086,366.897 
		573.359,367.082 	"/>
	<polygon fill-rule="evenodd" clip-rule="evenodd" fill="#414266" points="560.342,559.368 549.247,599.56 545.275,605.914 
		554.307,559.17 	"/>
	
		<ellipse transform="matrix(0.0984 -0.9951 0.9951 0.0984 210.0817 885.4147)" fill-rule="evenodd" clip-rule="evenodd" fill="#804432" cx="593.703" cy="326.763" rx="5.759" ry="3.376"/>
	
		<ellipse transform="matrix(0.0985 -0.9951 0.9951 0.0985 193.7356 857.9905)" fill-rule="evenodd" clip-rule="evenodd" fill="#804432" cx="570.42" cy="322.066" rx="5.758" ry="3.374"/>
	<path fill-rule="evenodd" clip-rule="evenodd" fill="#804432" d="M585.866,350.421c0.371-0.234,0.48-0.725,0.248-1.095
		c-0.233-0.371-0.725-0.482-1.094-0.249c-0.025,0.014-8.458,5.563-16.583-2.043c-0.321-0.298-0.822-0.282-1.12,0.037
		c-0.298,0.32-0.282,0.822,0.037,1.12C576.394,356.651,585.838,350.438,585.866,350.421z"/>
	<path fill-rule="evenodd" clip-rule="evenodd" fill="#804432" d="M576.25,313.839c0.152,0.145,0.157,0.385,0.012,0.537
		c-0.143,0.152-0.383,0.158-0.535,0.015c-0.011-0.011-3.445-3.403-7.971-0.599c-0.178,0.11-0.411,0.056-0.521-0.121
		c-0.11-0.178-0.054-0.413,0.125-0.521C572.39,310.029,576.238,313.828,576.25,313.839z"/>
	<path fill-rule="evenodd" clip-rule="evenodd" fill="#804432" d="M600.013,317.491c0.152,0.145,0.157,0.386,0.012,0.537
		c-0.143,0.152-0.383,0.158-0.535,0.016c-0.011-0.009-3.445-3.403-7.971-0.597c-0.178,0.11-0.411,0.054-0.521-0.123
		c-0.11-0.178-0.055-0.413,0.122-0.521C596.153,313.682,600.002,317.48,600.013,317.491z"/>
	
		<ellipse transform="matrix(0.0984 -0.9951 0.9951 0.0984 181.4984 883.6464)" fill-rule="evenodd" clip-rule="evenodd" fill="#B97A52" cx="578.407" cy="341.66" rx="1.34" ry="3.724"/>
</g>
<g>
	<path fill-rule="evenodd" clip-rule="evenodd" fill="#ED9D6C" d="M628.946,1058.386l-0.169-20.16c0,0,10.772-0.513,13.509-3.59
		c2.737-3.078,1.368-11.288,2.396-15.048c1.024-3.764,3.076-9.92,3.42-15.052c0.341-5.132-0.344-8.209-0.344-11.287
		s-3.76-21.203-7.865-22.913c-0.912-0.382-2.163-0.559-3.587-0.571h-0.001c-5.284-2.172-28.56,1.937-28.219,6.897
		c0.343,4.962,4.896,12.843,4.896,12.843c0.098,1.547-0.149,3.024-1.475,4.086c-3.422,2.736-9.919,1.709-9.919,3.422v5.47h-5.473
		c0,0-3.078-8.206-7.183-6.497c-4.105,1.713-3.762,4.446-1.711,11.288c2.053,6.841,4.789,12.314,4.789,12.314l4.446-1.372
		l-3.762,30.44l-5.125,1.948l27.356,31.399l13.593-16.695l1.55,4.275l6.753-6.553L628.946,1058.386z"/>
	<path fill-rule="evenodd" clip-rule="evenodd" fill="#E03C2D" d="M584.824,1047.455c0,0-18.127,1.024-30.439,1.707
		c-12.314,0.686-42.41,19.838-42.41,19.838l5.472,35.572l20.522-8.21c0,0-1.37,55.407-2.738,70.455
		c-1.367,15.052-9.576,50.62-9.576,50.62s64.299,13.68,80.717,14.365c16.417,0.683,32.148-2.054,32.148-2.054l19.838-94.733
		l17.786,20.862c0,0,0.341-17.443,3.42-22.23c3.078-4.787,3.078-4.787,3.078-4.787l1.027-23.258l-22.573-29.758l-26.678-17.784
		l-19.494,23.943L584.824,1047.455z"/>
	<path fill-rule="evenodd" clip-rule="evenodd" fill="#804432" d="M636.306,969.765L636.306,969.765L636.306,969.765z
		 M612.981,989.505c0,0-4.553-7.881-4.896-12.843c-0.341-4.961,22.935-9.069,28.22-6.897c1.424,0.013,2.675,0.189,3.587,0.571
		c0.672,0.279,1.334,0.999,1.972,2.017c0,0,3.504-5.951-0.941-11.424c-4.448-5.473-20.866-10.26-34.888-6.497
		c-14.022,3.764-24.965,21.89-29.754,28.386c-4.789,6.5,2.735,22.231,6.499,32.495c2.285,6.229,7.851,13.096,11.869,17.523
		l1.808-14.62l-4.446,1.368c0,0-2.736-5.47-4.788-12.311c-2.052-6.842-2.395-9.578,1.71-11.288c4.104-1.709,7.183,6.5,7.183,6.5
		h5.473v-5.473c0-1.71,6.497-0.686,9.918-3.422C612.834,992.529,613.078,991.052,612.981,989.505z"/>
	<path fill-rule="evenodd" clip-rule="evenodd" fill="#C88257" d="M599.708,1019.588c0,0,8.208,9.577,14.707,12.314
		c6.499,2.733,8.892,3.248,8.892,3.248S605.523,1035.321,599.708,1019.588z"/>
	<path fill-rule="evenodd" clip-rule="evenodd" fill="#ED9D6C" d="M512.488,1072.342l-38.473,22.491l-44.461,73.194
		c0,0-15.392,23.94-15.733,27.704c-0.343,3.761,2.051,4.102,3.762,9.233c1.709,5.129,8.551,7.524,10.261,8.548
		c1.711,1.027,4.787,3.764,6.84,1.713c2.052-2.054,1.368-4.787,3.42-4.787c2.053,0,5.129,3.077,6.84-2.055
		c1.709-5.128,1.027-5.128,0.684-11.97s-1.368-20.521-1.368-20.521l42.753-58.484l29.821-16.823L512.488,1072.342z"/>
	<path fill-rule="evenodd" clip-rule="evenodd" fill="#ED9D6C" d="M676.144,1155.878c0,0,16.083,11.464,20.529,13.859
		c4.446,2.393,11.627-3.081,11.627-3.081s-7.522-69.087-9.917-77.638c-2.394-8.551-4.789-14.365-4.789-14.365
		s-3.076-19.152-5.814-21.886c-2.735-2.74-6.499-4.105-8.208-4.449c-1.711-0.342-13.681-1.024-13.681-1.024
		s-7.524-1.709-9.576-0.341c-2.053,1.365-3.762,3.419-1.709,7.18c2.052,3.763,4.789,4.787,6.499,8.895
		c1.709,4.103,5.471,6.839,7.523,9.234c2.053,2.392,5.13,4.787,5.13,4.787l9.913,28.554l-1.027,23.258l-3.078,4.787
		C676.485,1138.435,676.144,1155.878,676.144,1155.878z"/>
	<path fill-rule="evenodd" clip-rule="evenodd" fill="#C88257" d="M682.643,1128.86c0,0,1.545,9.239,2.913,15.225
		c1.369,5.984,3.764,9.574,3.764,9.574s-5.816-2.733-7.012-3.419c-1.198-0.683,2.223-1.281,2.223-1.281
		S682.992,1140.408,682.643,1128.86z"/>
	<path fill-rule="evenodd" clip-rule="evenodd" fill="#555684" d="M532.226,1218.815c0,0-4.257,35.742-0.152,59.686
		c4.103,23.94,23.833,64.827,23.833,64.827l-78.555,76.769c0,0-0.686,10.943,0,20.521c0.684,9.574,0.684,9.574,0.684,9.574
		l94.396-51.984l43.096,122.442l18.469-12.997l-15.734-135.439l-2.907-68.079l17.27-73.548L532.226,1218.815z"/>
	<path fill-rule="evenodd" clip-rule="evenodd" fill="#373435" d="M615.36,1520.297c0,0,10.604,32.832,12.654,33.174
		c2.052,0.345,17.786-21.89,17.786-21.89l2.053-7.865c0,0,12.313-8.206,17.443-12.652c5.13-4.449,10.945-15.733,10.945-18.129
		s-14.365,3.419-19.496,4.788c-5.13,1.368-23.257,9.236-25.31,6.841C629.384,1502.168,620.149,1510.036,615.36,1520.297z"/>
	<path fill-rule="evenodd" clip-rule="evenodd" fill="#373435" d="M677.608,1509.692c2.052-9.916-1.368-16.758-1.368-16.758
		c0,2.396-5.814,13.68-10.945,18.129c-5.13,4.446-17.443,12.652-17.443,12.652l-2.053,7.865c0,0-15.733,22.234-17.786,21.89
		c0.686,8.551,8.209,4.104,15.733-0.342c7.525-4.445,13.34-16.074,15.733-17.784
		C661.875,1533.636,675.556,1519.611,677.608,1509.692z"/>
	<path fill-rule="evenodd" clip-rule="evenodd" fill="#373435" d="M477.717,1419.222l-17.437-4.489c0,0-2.958,5.396-3.155,9.913
		c-0.199,4.521,1.313,16.124,1.252,18.479c-0.061,2.357-3.549,16.732-2.257,22.209c1.292,5.479,10.638,16.962,12.188,17.79
		c1.55,0.825,5.937-1.253,6.311-7.285c0.374-6.031,3.943-21.324,5.883-25.094c1.939-3.77,3.375-3.785,3.375-3.785
		S478.418,1434.925,477.717,1419.222z"/>
	<polygon fill-rule="evenodd" clip-rule="evenodd" fill="#AF3226" points="664.472,1103.083 658.358,1135.016 661.54,1138.748 	"/>
	<polygon fill-rule="evenodd" clip-rule="evenodd" fill="#3C3C61" points="616.224,1248.179 615.355,1304.135 632.625,1230.587 
		619.792,1229.082 619.297,1231.726 	"/>
	<path fill-rule="evenodd" clip-rule="evenodd" fill="#3C3C61" d="M555.063,1344.15l17.369,54.058l-6.154,3.388
		C566.277,1401.596,555.086,1344.225,555.063,1344.15z"/>
	<path fill-rule="evenodd" clip-rule="evenodd" fill="#804432" d="M623.725,998.281c1.86,0,3.375-2.587,3.375-5.761
		c0-3.172-1.516-5.76-3.375-5.76s-3.377,2.588-3.377,5.76C620.347,995.694,621.865,998.281,623.725,998.281z"/>
	<path fill-rule="evenodd" clip-rule="evenodd" fill="#804432" d="M618.357,982.675c-0.165,0.127-0.195,0.367-0.066,0.531
		c0.128,0.168,0.368,0.195,0.532,0.068c0.011-0.01,3.765-3.047,7.991,0.189c0.166,0.127,0.405,0.096,0.53-0.072
		c0.127-0.164,0.095-0.402-0.07-0.53C622.572,979.263,618.37,982.663,618.357,982.675z"/>
	<path fill-rule="evenodd" clip-rule="evenodd" fill="#804432" d="M645.114,993.913c1.389,0,2.52-1.934,2.52-4.301
		s-1.131-4.3-2.52-4.3c-1.387,0-2.521,1.933-2.521,4.3S643.728,993.913,645.114,993.913z"/>
	<path fill-rule="evenodd" clip-rule="evenodd" fill="#804432" d="M641.107,982.259c-0.125,0.097-0.146,0.277-0.05,0.398
		c0.095,0.123,0.274,0.145,0.397,0.049c0.009-0.006,2.81-2.273,5.965,0.143c0.125,0.097,0.303,0.072,0.397-0.053
		c0.094-0.124,0.071-0.301-0.055-0.394C644.255,979.712,641.115,982.253,641.107,982.259z"/>
	<path fill-rule="evenodd" clip-rule="evenodd" fill="#804432" d="M633.444,1018.604c-0.216-0.267-0.254-0.766-0.087-1.113
		c0.167-0.345,0.479-0.406,0.695-0.14c0.014,0.019,4.91,6.37,10.423-0.4c0.217-0.264,0.527-0.198,0.692,0.149
		c0.166,0.347,0.124,0.847-0.093,1.11C638.943,1025.737,633.459,1018.626,633.444,1018.604z"/>
	<path fill-rule="evenodd" clip-rule="evenodd" fill="#B97A52" d="M639.388,1007.016c2.051,0,3.723-0.602,3.723-1.341
		c0-0.738-1.672-1.34-3.723-1.34c-2.051,0-3.723,0.602-3.723,1.34C635.665,1006.414,637.337,1007.016,639.388,1007.016z"/>
</g>
<g>
	<path fill-rule="evenodd" clip-rule="evenodd" fill="#ED9D6C" d="M1729.441,1102.829l31.442,53.442l87.215-36.093
		c0,0,14.871-1.552,18.588-3.1c3.718-1.548,8.676-0.62,11.154-1.858c2.479-1.238,1.858-7.127,1.858-7.127s1.858-8.52,0.466-9.605
		c-1.394-1.083-1.394-3.407-3.562-5.11c-2.169-1.703-3.1-1.548-4.648-2.944c-1.548-1.394-1.703-5.266-3.564-6.041
		c-1.858-0.772-8.517-0.772-12.082,0.931c-3.562,1.703-14.096,15.337-14.096,15.337l-58.401,15.646l-18.122-29.28L1729.441,1102.829
		z"/>
	<path fill-rule="evenodd" clip-rule="evenodd" fill="#E03C2D" d="M1614.811,1043.655c0,0,52.354-9.771,58.239-11.009
		c5.887-1.241,40.741-4.086,40.741-4.086s34.548,17.573,38.269,20.98c3.717,3.406,21.638,50.427,21.638,50.427l-37.592,14.191
		l-11.933-19.075c0,0-79.003,112.772-83.958,118.969c-4.958,6.196-89.325-60.998-89.325-60.998l76.31-71.914l-28.504-2.168
		L1614.811,1043.655z"/>
	<path fill-rule="evenodd" clip-rule="evenodd" fill="#ED9D6C" d="M1776.825,955.788c0,0,8.656,18.938,8.656,20.291
		c0,1.353-1.893,5.681-1.893,7.844c0,2.165,6.493,11.632,7.304,14.88c0.81,3.245-3.789,4.059-3.789,4.059s0.811,5.681,0.271,7.573
		s-2.433,3.519-2.433,3.519s2.433,3.242,2.162,6.221c-0.27,2.976,1.893,13.258-1.893,14.61c-3.788,1.35-24.89-2.165-24.89-2.165
		l-12.174,30.027l-34.356-34.086l14.607-30.841c0,0-6.224-4.598-6.494-12.444c-0.27-7.844,3.792-13.798,8.12-11.905
		c4.325,1.896,5.411,5.684,8.113,10.553c2.706,4.871,4.602,8.116,4.602,8.116l5.678-2.436c0,0-0.27-16.503,0.27-18.126
		c0.543-1.623,12.448-10.279,11.635-13.797c-0.813-3.516-4.867-6.221-1.353-8.387
		C1762.484,947.132,1776.825,955.788,1776.825,955.788z"/>
	<path fill-rule="evenodd" clip-rule="evenodd" fill="#373435" d="M1618.831,1436.035l-19.565,18.33c0,0,13.389,15.858,15.24,18.743
		c1.855,2.883,6.594,2.678,6.594,2.678s7.825,10.093,20.388,16.479c12.565,6.385,25.128,7.207,26.775,6.178
		c1.65-1.03,0-2.678-3.295-7.003s-15.652-19.979-16.683-27.599s-1.853-15.035-1.853-15.035S1629.129,1439.947,1618.831,1436.035z"/>
	<path fill-rule="evenodd" clip-rule="evenodd" fill="#373435" d="M1399.306,1431.564l-26.766-1.555c0,0-2.271,20.63-3.085,23.962
		c-0.813,3.329,2.601,6.621,2.601,6.621s-1.921,12.628,2.106,26.131c4.027,13.506,12.088,23.18,13.969,23.663
		c1.883,0.484,1.941-1.846,2.805-7.213c0.865-5.368,3.698-25.11,8.51-31.107c4.815-5.997,9.622-11.7,9.622-11.7
		S1403.566,1441.723,1399.306,1431.564z"/>
	<path fill-rule="evenodd" clip-rule="evenodd" fill="#ED9D6C" d="M1614.054,1045.309l-44.48,4.85l-59.174,81.792l-21.066,23.546
		l-19.522,19.209l1.086,2.323l15.802-10.841l-18.28,23.081l4.492,1.858l20.602-20.14l-16.729,21.223l5.113,3.255l16.109-16.729
		l-0.311,5.42l-9.603,14.251l3.406,1.086l21.226-23.546l0.772,10.223l5.424-2.941c0,0,0.775-13.322,1.237-14.253
		c0.466-0.928,2.635-8.21,2.635-8.21l-2.014-15.182l60.88-65.68l17.04-0.931L1614.054,1045.309z"/>
	<path fill-rule="evenodd" clip-rule="evenodd" fill="#555684" d="M1640.215,1214.053l-1.555,6.041l100.555,101.395l-90.021,136.852
		c0,0-24.164-9.913-26.025-13.63c-1.858-3.72-4.338-8.675-4.338-8.675l56.562-90.38l-77.145-54.297l-49.902,83.341l-139.278,85.667
		l-19.671-29.379l122.394-97.182l46.443-174.965L1640.215,1214.053z"/>
	<path fill-rule="evenodd" clip-rule="evenodd" fill="#804432" d="M1758.969,949.294c-3.515,2.166,0.54,4.871,1.353,8.387
		c0.813,3.518-11.092,12.174-11.635,13.797c-0.539,1.623-0.27,18.126-0.27,18.126l-5.678,2.436c0,0-1.896-3.245-4.602-8.116
		c-2.702-4.869-3.788-8.656-8.113-10.553c-4.328-1.893-8.39,4.062-8.12,11.905c0.271,7.847,6.494,12.444,6.494,12.444l-6.534,13.795
		c-9.289-19.574-17.015-56.98-15.109-62.49c2.436-7.034,20.561-11.902,37.063-15.151c16.503-3.246,31.381,1.896,34.359,7.847
		c2.976,5.95-1.353,14.067-1.353,14.067S1762.484,947.132,1758.969,949.294z"/>
	<path fill-rule="evenodd" clip-rule="evenodd" fill="#C88053" d="M1728.398,997.72c0,0,7.85,6.764,10.552,7.577
		c2.706,0.81,12.445,19.476,15.69,21.368C1757.886,1028.561,1735.433,1012.058,1728.398,997.72z"/>
	<polygon fill-rule="evenodd" clip-rule="evenodd" fill="#B93126" points="1666.628,1074.977 1627.202,1081.141 1616.647,1093.831 
		1631.438,1086.238 1675.424,1072.516 	"/>
	<polygon fill-rule="evenodd" clip-rule="evenodd" fill="#B93126" points="1740.526,1075.33 1724.173,1095.084 1736.105,1114.159 
		1739.513,1112.674 1729.441,1096.443 	"/>
	<polygon fill-rule="evenodd" clip-rule="evenodd" fill="#37375C" points="1598.248,1291.358 1545.326,1248.812 1593.067,1300.009 	
		"/>
	<path fill-rule="evenodd" clip-rule="evenodd" fill="#804432" d="M1777.126,988.198c1.858,0,3.375-2.588,3.375-5.762
		c0-3.171-1.517-5.759-3.375-5.759c-1.861,0-3.376,2.588-3.376,5.759C1773.75,985.61,1775.265,988.198,1777.126,988.198z"/>
	<path fill-rule="evenodd" clip-rule="evenodd" fill="#804432" d="M1771.758,972.592c-0.164,0.127-0.195,0.366-0.064,0.53
		c0.127,0.168,0.366,0.195,0.53,0.068c0.013-0.01,3.764-3.047,7.992,0.192c0.165,0.124,0.403,0.093,0.531-0.071
		c0.127-0.168,0.093-0.406-0.072-0.533C1775.975,969.179,1771.771,972.582,1771.758,972.592z"/>
	<polygon fill-rule="evenodd" clip-rule="evenodd" fill="#FFFFFF" points="1782.785,1012.622 1773.65,1011.431 1783.083,1015.501 	
		"/>
</g>
<g>
	<path fill-rule="evenodd" clip-rule="evenodd" fill="#E03C2D" d="M1597.926,386.231c0,0-22.854,17.4-29.345,28.309
		c-6.494,10.908-11.691,21.558-11.691,21.558l2.34-18.7c0,0-19.221,14.542-21.297,18.178c-2.075,3.638-15.606,50.586-18.312,60.052
		c-2.702,9.468,24.35,27.865,24.35,27.865s9.469,55.184,11.095,68.981c1.626,13.799,4.328,24.348,4.328,24.348
		s53.021,2.977,76.288-3.517c23.264-6.492,23.804-8.117,23.804-8.117s-3.242-89.274-3.242-99.013s-0.543-27.052-0.543-27.052
		l26.513,9.198c0,0,7.033-17.317,9.196-28.136c2.165-10.819,2.165-12.985,2.165-12.985s-43.285-26.51-57.893-35.168
		C1621.074,403.374,1597.926,386.231,1597.926,386.231z"/>
	<path fill-rule="evenodd" clip-rule="evenodd" fill="#ED9D6C" d="M1522.603,504.417l-5.941,23.656h-63.844
		c0,0-7.033-20.02-11.904-23.265c-4.871-3.247-12.988-4.33-15.15,0c-2.166,4.328-6.491,7.032-8.117,11.36
		c-1.622,4.33-7.03,12.446-5.947,19.48c1.08,7.032,29.215,10.819,29.215,10.819l83.861,19.479l20.604-34.185l-1.408-8.267
		L1522.603,504.417z"/>
	<polygon fill-rule="evenodd" clip-rule="evenodd" fill="#555684" points="1559.394,616.823 1497.18,719.047 1447.403,849.982 
		1477.701,867.297 1555.611,733.116 1617.296,677.926 1673.563,751.509 1810.991,729.869 1800.169,695.242 1702.78,691.995 
		1659.73,604.203 	"/>
	<path fill-rule="evenodd" clip-rule="evenodd" fill="#373435" d="M1477.794,866.411l-3.64,23.374c0,0-8.048,0.767-13.602-1.343
		c-5.557-2.107-18.777-9.959-21.65-11.111c-2.873-1.149-22.032-4.409-27.974-8.814c-5.938-4.404-14.939-21.647-15.135-23.946
		c-0.192-2.299,4.598-6.514,12.072-3.832c7.472,2.681,27.778,6.32,33.335,5.938c5.557-0.382,6.323-2.107,6.323-2.107
		S1459.209,857.405,1477.794,866.411z"/>
	<path fill-rule="evenodd" clip-rule="evenodd" fill="#ED9D6C" d="M1531.548,319.204c0,0-8.656,18.94-8.656,20.291
		c0,1.352,1.893,5.681,1.893,7.845s-6.494,11.632-7.304,14.877c-0.811,3.247,3.788,4.06,3.788,4.06s-0.81,5.683-0.271,7.575
		c0.54,1.891,2.433,3.517,2.433,3.517s-2.433,3.244-2.162,6.221c0.27,2.976-1.893,13.258,1.893,14.61
		c3.788,1.351,24.89-2.166,24.89-2.166l10.493,25.887l-1.654,14.176l6.55-12.736l31.142-31.385l-14.607-30.84
		c0,0,6.221-4.6,6.494-12.445c0.267-7.845-3.795-13.797-8.12-11.903c-4.325,1.895-5.411,5.684-8.116,10.552
		c-2.702,4.868-4.598,8.115-4.598,8.115l-5.682-2.434c0,0,0.273-16.506-0.267-18.127c-0.543-1.623-12.448-10.279-11.635-13.796
		c0.813-3.517,4.868-6.223,1.353-8.388C1545.885,310.545,1531.548,319.204,1531.548,319.204z"/>
	<path fill-rule="evenodd" clip-rule="evenodd" fill="#804432" d="M1549.403,312.709c3.516,2.166-0.54,4.871-1.353,8.388
		c-0.813,3.517,11.092,12.173,11.635,13.796c0.54,1.621,0.267,18.127,0.267,18.127l5.682,2.434c0,0,1.896-3.247,4.598-8.115
		c2.705-4.868,3.791-8.658,8.116-10.552c4.325-1.894,8.387,4.059,8.12,11.903c-0.273,7.845-6.494,12.445-6.494,12.445l6.534,13.796
		c9.289-19.578,17.015-56.98,15.106-62.49c-2.432-7.034-20.558-11.905-37.061-15.152c-16.503-3.246-31.381,1.896-34.359,7.845
		c-2.975,5.951,1.354,14.069,1.354,14.069S1545.885,310.545,1549.403,312.709z"/>
	<path fill-rule="evenodd" clip-rule="evenodd" fill="#CE8355" d="M1579.974,361.136c0,0-7.85,6.762-10.552,7.575
		c-2.706,0.813-12.445,19.477-15.69,21.371S1572.94,375.473,1579.974,361.136z"/>
	<path fill-rule="evenodd" clip-rule="evenodd" fill="#373435" d="M1800.169,695.239l20.77-11.32c0,0,5.501,5.921,7.204,11.615
		c1.707,5.692,3.506,20.961,4.344,23.945c0.832,2.98,9.895,20.172,10.006,27.565c0.115,7.396-8.101,25.026-9.811,26.576
		c-1.706,1.551-7.964,0.31-10.378-7.253c-2.414-7.563-11.874-25.897-15.554-30.077c-3.683-4.179-5.517-3.738-5.517-3.738
		S1804.317,715.47,1800.169,695.239z"/>
	<path fill-rule="evenodd" clip-rule="evenodd" fill="#ED9D6C" d="M1692.638,453.714l48.01,30.819l-28.674,110.915
		c0,0-15.147,37.334-16.504,38.687c-1.355,1.351-8.653,0.542-10.009,0.542s-8.927,4.057-11.905,0.54
		c-2.975-3.516-5.95-2.707-8.116-4.059c-2.162-1.353-3.245-8.115-3.245-8.115s-2.433-7.035-1.893-9.739s-5.142-9.198,5.681-15.692
		c10.822-6.492,26.242-11.633,26.242-11.633l12.718-85.489l-22.729-12.169L1692.638,453.714z"/>
	<path fill-rule="evenodd" clip-rule="evenodd" fill="#B73226" d="M1538.088,518.24l5.883,5.253c0,0-3.524-29.961-4.114-47.292
		C1539.45,487.33,1538.662,505.384,1538.088,518.24z"/>
	<path fill-rule="evenodd" clip-rule="evenodd" fill="#804432" d="M1531.591,352.469c1.861,0,3.376-2.588,3.376-5.759
		c0-3.172-1.515-5.76-3.376-5.76c-1.858,0-3.376,2.587-3.376,5.76C1528.215,349.881,1529.732,352.469,1531.591,352.469z"/>
	<path fill-rule="evenodd" clip-rule="evenodd" fill="#804432" d="M1536.959,336.861c0.164,0.128,0.195,0.368,0.064,0.532
		c-0.127,0.166-0.366,0.196-0.53,0.067c-0.013-0.008-3.764-3.045-7.992,0.192c-0.165,0.125-0.403,0.095-0.531-0.071
		c-0.127-0.166-0.093-0.403,0.072-0.531C1532.742,333.449,1536.946,336.852,1536.959,336.861z"/>
	<polygon fill-rule="evenodd" clip-rule="evenodd" fill="#FFFFFF" points="1525.932,376.893 1535.065,375.701 1525.634,379.772 	"/>
</g>
<g>
	<path fill-rule="evenodd" clip-rule="evenodd" fill="#373435" d="M955.487,829.41c0,0,7.563,22.904,8.329,24.328
		c0.767,1.424-0.329,2.631-0.329,2.631s-24.658,8.658-29.261,9.424c-4.603,0.768-39.233,6.685-45.698,5.371
		c-6.467-1.315-5.81-11.068-3.728-12.166c2.083-1.095,11.947-2.3,16.877-5.26c4.933-2.958,18.411-13.37,20.713-17.314
		c2.302-3.945,3.945-8.109,3.945-8.109L955.487,829.41z"/>
	<path fill-rule="evenodd" clip-rule="evenodd" fill="#E03C2D" d="M1024.69,391.224l-3.338,27.479l38.296-39.947l42.589,19.809
		l41.266,28.723l-23.109,31.694l-26.411-11.227c0,0-3.302,51.502-3.302,54.804s10.563,56.783,10.563,56.783l-87.814,17.828h-10.566
		l-5.941-56.124l-0.66-12.545l-11.39,13.536l-17.333-41.926l13.534-35.654l9.904-35.654L1024.69,391.224z"/>
	<path fill-rule="evenodd" clip-rule="evenodd" fill="#ED9D6C" d="M984.872,522.035l-20.968,29.715l-42.588-106.964
		c0,0-8.253-15.517-10.564-20.468c-2.31-4.952-5.283-10.564-5.283-10.564s-8.585-16.506-8.585-17.662s4.126-0.164,5.777,1.32
		c1.652,1.484,4.126,4.622,4.126,4.622s-5.115-20.633-5.281-24.1c-0.166-3.466,3.137-3.301,3.137-3.301l8.087,19.479l-4.291-25.586
		l4.126-1.651l9.409,27.731l3.135-3.631l-0.329-25.917h2.807l2.476,27.072l7.428,15.352l12.381-21.293l2.971,4.455l-7.594,26.576
		l-4.953,20.965l25.259,51.501l3.099-6.877C968.654,482.808,984.382,520.851,984.872,522.035z"/>
	<polygon fill-rule="evenodd" clip-rule="evenodd" fill="#555684" points="1002.863,577.169 897.566,640.536 894.926,653.082 
		925.298,833.996 955.671,830.034 952.369,670.249 1044.623,657.069 1111.971,763.372 1211.012,848.549 1229.901,827.091 
		1146.964,733 1115.271,629.998 1100.939,559.403 	"/>
	<path fill-rule="evenodd" clip-rule="evenodd" fill="#ED9D6C" d="M1143.502,427.288l50.945,35.292l-65.314,106.991l-14.328,58.129
		l-4.489-2.336l5.612-25.752l-10.895,30.95l-5.613-1.402l9.129-32.28l-14.823,30.958l-4.621-1.486l11.06-30.867l-1.981,0.247
		l-15.847,26l-2.312-2.147l-0.333-2.723l13.702-34.663l-18.984,12.874l-2.31-3.962c0,0,17.332-17.497,18.157-17.992
		c0.825-0.495,14.526-12.38,14.526-12.38l44.236-85.836l-28.625-15.922C1120.393,458.981,1142.794,426.796,1143.502,427.288z"/>
	<path fill-rule="evenodd" clip-rule="evenodd" fill="#ED9D6C" d="M1003.924,299.303c0,0-8.656,18.94-8.656,20.291
		c0,1.353,1.893,5.681,1.893,7.845s-6.494,11.632-7.304,14.879c-0.81,3.247,3.789,4.058,3.789,4.058s-0.81,5.683-0.27,7.575
		s2.434,3.517,2.434,3.517s-2.434,3.244-2.164,6.221s-1.893,13.259,1.894,14.61s24.888-2.164,24.888-2.164l4.18,10.309
		l-3.948,33.302l11.385-12.197l27.604-28.794l-7.297-37.521c0,0,6.223-4.598,6.492-12.443c0.27-7.845-3.791-13.799-8.118-11.905
		c-4.327,1.896-5.41,5.684-8.115,10.552c-2.704,4.87-4.598,8.117-4.598,8.117l-5.681-2.434c0,0,0.273-16.506-0.27-18.129
		c-0.542-1.621-12.446-10.279-11.634-13.796c0.813-3.516,4.868-6.223,1.352-8.387
		C1018.263,290.646,1003.924,299.303,1003.924,299.303z"/>
	<path fill-rule="evenodd" clip-rule="evenodd" fill="#804432" d="M1021.778,292.811c3.517,2.164-0.539,4.871-1.352,8.387
		c-0.813,3.517,11.092,12.175,11.634,13.796c0.543,1.623,0.27,18.129,0.27,18.129l5.681,2.434c0,0,1.894-3.247,4.598-8.117
		c2.706-4.868,3.789-8.656,8.115-10.552c4.327-1.894,8.388,4.06,8.118,11.905c-0.27,7.845-6.492,12.443-6.492,12.443l3.649,18.76
		c9.289-19.576,20.164-61.183,17.994-67.455c-2.172-6.272-20.56-11.903-37.063-15.15c-16.503-3.247-31.38,1.894-34.357,7.845
		c-2.977,5.951,1.351,14.068,1.351,14.068S1018.263,290.646,1021.778,292.811z"/>
	<path fill-rule="evenodd" clip-rule="evenodd" fill="#CE8355" d="M1052.35,341.235c0,0-7.848,6.764-10.552,7.577
		c-2.704,0.812-12.444,19.476-15.69,21.37C1022.861,372.076,1045.316,355.574,1052.35,341.235z"/>
	<path fill-rule="evenodd" clip-rule="evenodd" fill="#BC3628" d="M996.262,508.5c0,0-1.779-13.472-3.393-28.166l0.189,31.971
		L996.262,508.5z"/>
	<path fill-rule="evenodd" clip-rule="evenodd" fill="#373435" d="M1222.188,820.661c0,0,24.096,1.137,25.699,0.931
		c1.604-0.205,2.34,1.249,2.34,1.249s-0.741,26.125-1.672,30.696c-0.934,4.572-7.804,39.027-11.344,44.593
		c-3.543,5.566-12.416,1.461-12.693-0.876c-0.279-2.336,2.126-11.976,1.127-17.64c-0.996-5.664-5.893-21.976-8.753-25.538
		c-2.86-3.562-6.159-6.587-6.159-6.587L1222.188,820.661z"/>
	<polygon fill-rule="evenodd" clip-rule="evenodd" fill="#3E3D63" points="1088.56,638.081 1044.623,657.069 1049.476,664.729 	"/>
	<path fill-rule="evenodd" clip-rule="evenodd" fill="#804432" d="M1003.631,332.906c1.86,0,3.375-2.587,3.375-5.758
		c0-3.172-1.516-5.76-3.375-5.76c-1.86,0-3.376,2.588-3.376,5.76C1000.255,330.319,1001.771,332.906,1003.631,332.906z"/>
	<path fill-rule="evenodd" clip-rule="evenodd" fill="#804432" d="M1008.995,317.3c0.166,0.127,0.196,0.366,0.068,0.532
		c-0.129,0.165-0.368,0.195-0.534,0.067c-0.011-0.009-3.764-3.047-7.989,0.191c-0.166,0.127-0.405,0.094-0.531-0.072
		c-0.127-0.166-0.096-0.403,0.07-0.53C1004.78,313.887,1008.984,317.289,1008.995,317.3z"/>
	<polygon fill-rule="evenodd" clip-rule="evenodd" fill="#FFFFFF" points="997.97,357.331 1007.104,356.139 997.672,360.21 	"/>
</g>
</svg>
